<svg width="213" height="26" viewBox="0 0 213 26" fill="none" xmlns="http://www.w3.org/2000/svg">
<path fill-rule="evenodd" clip-rule="evenodd" d="M0 2.05355V25.1487H5.18383V15.4774H6.17031C8.97499 15.4774 10.0388 17.4696 10.8319 20.0616C11.3735 21.7831 11.8184 23.5626 12.6114 25.1293H18.2401C17.1376 22.8276 16.3832 20.3324 15.5708 17.8565C14.6037 15.0712 13.2691 13.0208 10.2903 12.2665L18.3368 2.01486H11.9924L5.60937 11.6088H5.16449V2.01486H0V2.05355ZM19.0912 2.05355H24.9907L28.3563 10.1775C28.9753 11.8216 29.4589 13.1949 29.9618 14.6069H30.0585C30.368 13.6205 30.7355 12.073 31.3351 10.1194L33.8303 2.07289H39.3236L35.0102 13.2916C33.5982 16.8894 32.1668 20.3904 30.4453 22.5181C28.9366 24.3943 27.0217 25.5742 24.3137 25.5742C23.1145 25.5742 22.3988 25.4388 21.7411 25.2067L22.1087 21.0287C22.5149 21.1254 23.0758 21.2028 23.8302 21.2028C25.4356 21.2028 26.5381 20.1002 26.9443 19.0364C27.1571 18.6689 27.041 18.3594 26.867 17.9726L19.0912 2.09223V2.05355ZM42.6699 2.05355H58.2407V25.1487H53.0376V6.32827H47.7957V11.8216C47.7957 17.7598 47.0413 22.3053 43.5403 24.375C42.3798 25.0326 40.7937 25.4968 38.9561 25.4968L38.2985 21.2801C39.4203 21.1448 40.3488 20.6612 40.9291 20.0422C42.3411 18.6109 42.6699 15.6514 42.6699 12.1504V2.0342V2.05355ZM62.7863 2.05355H67.9894V10.0808C68.7051 10.0034 69.8077 9.90667 70.7941 9.90667C75.7652 9.90667 79.9819 12.2665 79.9819 17.4116C79.9819 19.5973 79.2662 21.2415 78.125 22.4601C75.9006 24.7231 72.0321 25.4001 68.415 25.4001C65.8424 25.4001 63.9275 25.2261 62.7669 25.052V2.05355H62.7863ZM67.9701 14.046V21.3382C68.5504 21.4349 69.1694 21.4736 69.9237 21.4736C72.4576 21.4736 74.5079 20.2356 74.5079 17.6437C74.5079 15.0518 72.4769 13.9106 69.9817 13.9106C69.2274 13.9106 68.6084 13.988 67.9508 14.046H67.9701ZM84.7789 25.1487V6.42499H78.5699V2.0342H96.3264V6.42499H90.0207V25.1487H84.7789ZM97.7965 2.0342L105.572 17.9145C105.746 18.282 105.843 18.5915 105.65 18.9784C105.243 20.0422 104.141 21.1448 102.535 21.1448C101.781 21.1448 101.239 21.0674 100.814 20.9707L100.446 25.1487C101.104 25.3808 101.82 25.5162 103.019 25.5162C105.727 25.5162 107.642 24.3556 109.151 22.4601C110.872 20.3324 112.303 16.8313 113.715 13.2336L118.029 2.01486H112.536L110.04 10.0614C109.46 12.015 109.073 13.5624 108.764 14.5489H108.667C108.145 13.1369 107.681 11.7636 107.062 10.1194L103.696 1.99552H97.7965V2.0342ZM120.118 25.1487V2.34369C121.723 2.07289 123.986 1.86012 127.178 1.86012C130.37 1.86012 132.691 2.47908 134.238 3.71701C135.708 4.87757 136.714 6.81184 136.714 9.05559C136.714 11.2993 135.96 13.2336 134.586 14.5489C132.807 16.2317 130.157 16.9861 127.081 16.9861C126.404 16.9861 125.785 16.9474 125.302 16.8894V25.1487H120.118ZM125.302 6.01879V12.8467C125.747 12.9435 126.288 12.9821 127.043 12.9821C129.828 12.9821 131.53 11.5701 131.53 9.21033C131.53 7.08264 130.06 5.82537 127.449 5.82537C126.385 5.82537 125.669 5.92208 125.282 6.03814L125.302 6.01879ZM149.944 19.2105H143.329L141.685 25.1487H136.269L143.329 2.0342H150.176L157.333 25.1487H151.704L149.925 19.2105H149.944ZM144.083 15.3033H149.19L147.759 10.4096C147.352 9.03625 146.927 7.31475 146.598 5.96076H146.521C146.172 7.33409 145.844 9.07493 145.457 10.4096L144.083 15.3033ZM162.943 25.5355C164.799 25.5355 166.037 24.2009 166.037 22.3827C166.037 20.5645 164.799 19.1911 162.981 19.1911C161.163 19.1911 159.886 20.5258 159.886 22.3827C159.886 24.2396 161.163 25.5355 162.943 25.5355Z" fill="white"/>
<path fill-rule="evenodd" clip-rule="evenodd" d="M169.594 25.0329V2.22787C171.199 1.95708 173.462 1.74431 176.654 1.74431C179.845 1.74431 182.166 2.36327 183.714 3.6012C185.184 4.76176 186.19 6.69603 186.19 8.93978C186.19 11.1835 185.435 13.1178 184.062 14.4331C182.283 16.1159 179.633 16.8703 176.557 16.8703C175.88 16.8703 175.261 16.8316 174.778 16.7736V25.0329H169.594ZM174.778 5.90298V12.7309C175.222 12.8277 175.764 12.8663 176.518 12.8663C179.304 12.8663 181.006 11.4543 181.006 9.09452C181.006 6.96683 179.536 5.70955 176.925 5.70955C175.861 5.70955 175.145 5.80626 174.758 5.92232L174.778 5.90298ZM198.26 0.970602H203.153V3.00158C208.066 3.34975 212.999 6.2318 212.999 13.4273C212.999 20.6227 208.202 23.4468 203.095 23.911V26H198.182V23.911C193.172 23.5435 188.337 20.6808 188.337 13.6014C188.337 6.52194 193.791 3.38843 198.24 3.00158V0.970602H198.26ZM198.221 20.2746V6.56063C196.19 6.83143 193.598 8.61095 193.598 13.4853C193.598 18.0115 196.171 20.0038 198.221 20.2746ZM203.115 6.56063V20.2746C205.146 20.0425 207.737 18.321 207.737 13.4273C207.737 8.53358 205.262 6.85077 203.115 6.57997V6.56063Z" fill="white"/>
</svg>
