<svg width="236" height="42" viewBox="0 0 236 42" fill="none" xmlns="http://www.w3.org/2000/svg">
<rect x="9.75" y="0.75" width="47.5" height="35.5" rx="2.25" stroke="white" stroke-width="1.5"/>
<path fill-rule="evenodd" clip-rule="evenodd" d="M52.6802 5.70024C52.538 4.92637 52.1658 4.42836 51.6568 4.17573C51.2426 3.96956 50.7607 3.94923 50.2599 4.09152C49.824 4.21348 49.3665 4.46321 48.9265 4.82183C47.738 5.79171 46.6253 7.61968 46.4845 9.905C46.4399 10.6077 46.4521 11.3613 46.5143 12.1584C46.5549 12.6854 46.6186 13.2386 46.7052 13.8165H41.6493L41.6263 13.8194C40.8047 13.8542 40.0087 14.0677 39.3387 14.4452C38.7607 14.7704 38.2706 15.2161 37.9309 15.7722C37.5816 16.3428 37.3908 17.0223 37.4178 17.7991C37.4395 18.374 37.583 18.9998 37.8767 19.6663C37.7089 20.4169 37.6317 21.2213 37.7387 21.9269C37.8307 22.5265 38.0473 23.0608 38.4385 23.4572C38.4195 24.4489 38.5427 25.2808 38.7904 25.9995C39.0463 26.74 39.4294 27.3527 39.9221 27.8972C39.964 28.372 40.0371 28.825 40.1481 29.2518C40.2889 29.7847 40.492 30.274 40.7776 30.7066L40.7789 30.7052C41.6412 32.009 42.3302 31.98 43.4226 31.9321C43.5742 31.9263 43.738 31.9175 43.9898 31.9175H53.8795C54.7689 31.9175 55.4673 31.7811 56.1049 31.4384C56.7384 31.1001 57.2772 30.5774 57.8525 29.8035L58 29.3535V16.9846L57.4992 16.8394C56.2227 16.4706 55.2196 15.3018 54.4413 13.9021C53.6399 12.4633 53.0782 10.7776 52.6937 9.41425V5.83818L52.6802 5.70024ZM51.0924 5.48971C51.202 5.54344 51.29 5.67992 51.3428 5.91222V9.51734L51.3712 9.72496C51.7787 11.1841 52.3891 13.0324 53.2853 14.6441C54.1286 16.1584 55.225 17.4593 56.6491 18.059V29.0965C56.2579 29.593 55.8978 29.9313 55.5039 30.1418C55.0694 30.3742 54.5577 30.4685 53.8795 30.4685H43.9911C43.8138 30.4685 43.5837 30.4787 43.3698 30.4889C42.7228 30.5164 42.3126 30.5339 41.8754 29.8718V29.8689C41.6859 29.5814 41.5465 29.2417 41.4463 28.8613C41.3394 28.4547 41.2771 28.0046 41.2459 27.524L41.0375 27.0478C40.603 26.6064 40.27 26.107 40.0588 25.4957C39.8409 24.8656 39.7475 24.1062 39.7989 23.1567L39.8233 22.7283L39.4835 22.5004C39.2507 22.3465 39.1234 22.0532 39.0693 21.6946C38.9827 21.1254 39.0734 20.4242 39.2398 19.7751L39.1871 19.2525C38.9123 18.6891 38.781 18.1867 38.7647 17.7468C38.7485 17.2909 38.8595 16.8945 39.0598 16.565C39.2723 16.2179 39.585 15.9363 39.9613 15.7243C40.4487 15.4499 41.0348 15.2916 41.6493 15.264V15.2655H48.3187L48.1685 14.4074C48.0223 13.5784 47.9181 12.7885 47.8599 12.0393C47.8016 11.3046 47.7908 10.6237 47.8287 10.0023C47.9438 8.17722 48.8155 6.72965 49.7455 5.9703C50.0419 5.72928 50.3357 5.56376 50.6023 5.48971C50.8027 5.43309 50.9719 5.43019 51.091 5.48971H51.0924Z" fill="white"/>
<path fill-rule="evenodd" clip-rule="evenodd" d="M14.1687 31.2966C14.3068 32.0719 14.6685 32.5708 15.163 32.8239C15.5655 33.0305 16.0337 33.0509 16.5203 32.9083C16.9438 32.7861 17.3883 32.5359 17.8158 32.1767C18.9705 31.205 20.0516 29.3736 20.1884 27.0841C20.2318 26.3801 20.2199 25.6251 20.1594 24.8266C20.12 24.2986 20.0582 23.7444 19.974 23.1654H24.8862L24.9086 23.1625C25.7069 23.1276 26.4803 22.9138 27.1313 22.5356C27.6929 22.2098 28.169 21.7632 28.4991 21.2061C28.8384 20.6344 29.0238 19.9537 28.9975 19.1755C28.9765 18.5994 28.8371 17.9725 28.5517 17.3048C28.7148 16.5528 28.7897 15.747 28.6858 15.04C28.5964 14.4393 28.386 13.904 28.0059 13.5069C28.0243 12.5134 27.9046 11.6799 27.6639 10.9599C27.4154 10.2181 27.0432 9.60421 26.5644 9.05874C26.5237 8.58309 26.4526 8.12925 26.3448 7.7016C26.208 7.16776 26.0107 6.67756 25.7332 6.24409L25.7319 6.24555C24.8941 4.93932 24.2247 4.96841 23.1633 5.01641C23.016 5.02223 22.8569 5.03096 22.6123 5.03096H13.0035C12.1394 5.03096 11.4607 5.16769 10.8413 5.51097C10.2258 5.84989 9.70232 6.37355 9.14336 7.14885L9 7.59978V19.9915L9.48662 20.1369C10.7269 20.5064 11.7014 21.6774 12.4576 23.0796C13.2362 24.5211 13.782 26.2099 14.1556 27.5758V31.1584L14.1687 31.2966ZM15.7114 31.5075C15.6049 31.4537 15.5194 31.317 15.4681 31.0842V27.4725L15.4405 27.2645C15.0446 25.8026 14.4515 23.9509 13.5808 22.3363C12.7615 20.8192 11.6961 19.5158 10.3126 18.9151V7.85724C10.6927 7.35976 11.0425 7.02084 11.4252 6.80993C11.8474 6.57719 12.3445 6.48264 13.0035 6.48264H22.611C22.7832 6.48264 23.0068 6.47246 23.2146 6.46228C23.8433 6.43464 24.2418 6.41719 24.6666 7.08048V7.08339C24.8507 7.3714 24.9862 7.71178 25.0835 8.09288C25.1874 8.50017 25.2479 8.9511 25.2782 9.43257L25.4807 9.90968C25.9029 10.3519 26.2264 10.8523 26.4316 11.4646C26.6433 12.0959 26.7341 12.8567 26.6841 13.808L26.6604 14.2371L26.9905 14.4655C27.2168 14.6197 27.3404 14.9135 27.393 15.2728C27.4772 15.843 27.3891 16.5455 27.2273 17.1958L27.2786 17.7194C27.5456 18.2838 27.6731 18.7871 27.6889 19.2278C27.7047 19.6846 27.5969 20.0817 27.4022 20.4119C27.1957 20.7595 26.8919 21.0417 26.5263 21.2541C26.0528 21.529 25.4833 21.6875 24.8862 21.7152V21.7137H18.4063L18.5523 22.5734C18.6943 23.404 18.7956 24.1953 18.8521 24.9458C18.9087 25.6819 18.9192 26.3641 18.8824 26.9866C18.7706 28.8151 17.9236 30.2653 17.0201 31.0261C16.732 31.2675 16.4466 31.4334 16.1875 31.5075C15.9929 31.5643 15.8285 31.5672 15.7128 31.5075H15.7114Z" fill="white"/>
<path d="M77.2173 1.48682C78.6782 1.48682 79.9427 2.04297 81.0107 3.15527C82.0843 4.26204 82.6211 5.64551 82.6211 7.30566C82.6211 9.01562 82.0815 10.4351 81.0024 11.564C79.9233 12.6929 78.6174 13.2573 77.0845 13.2573C75.535 13.2573 74.2318 12.7067 73.1748 11.6055C72.1234 10.5042 71.5977 9.07926 71.5977 7.33057C71.5977 5.54313 72.2064 4.08496 73.4238 2.95605C74.4808 1.97656 75.7453 1.48682 77.2173 1.48682ZM77.0596 2.09277C76.0524 2.09277 75.2445 2.46631 74.6357 3.21338C73.8776 4.14307 73.4985 5.50439 73.4985 7.29736C73.4985 9.1346 73.8914 10.5485 74.6772 11.5391C75.2804 12.2917 76.0773 12.668 77.0679 12.668C78.1248 12.668 78.9964 12.2557 79.6826 11.4312C80.3743 10.6066 80.7202 9.30615 80.7202 7.52979C80.7202 5.604 80.3411 4.16797 79.583 3.22168C78.9743 2.46908 78.1331 2.09277 77.0596 2.09277ZM92.001 12.6929V15.1084H91.6938C91.6772 14.4609 91.4642 13.9463 91.0547 13.5645C90.6507 13.1882 89.9147 13 88.8467 13H83.667V12.6929C84.1595 12.6929 84.4749 12.6043 84.6133 12.4272C84.7516 12.2446 84.8208 11.8407 84.8208 11.2153V7.18115C84.8208 6.58903 84.7904 6.2404 84.7295 6.13525C84.6686 6.02458 84.5745 5.92773 84.4473 5.84473C84.32 5.75618 84.0599 5.71191 83.667 5.71191V5.39648H87.3442V5.71191C86.9735 5.71191 86.7244 5.75065 86.5972 5.82812C86.4699 5.90007 86.3703 5.99137 86.2983 6.10205C86.2264 6.21273 86.1904 6.57243 86.1904 7.18115V11.4727C86.1904 11.9541 86.2319 12.2391 86.3149 12.3276C86.4035 12.4162 86.6802 12.4604 87.145 12.4604H88.4897C89.0044 12.4604 89.2977 12.4134 89.3696 12.3193C89.4416 12.2253 89.4775 11.9209 89.4775 11.4062V7.18115C89.4775 6.65544 89.4499 6.31787 89.3945 6.16846C89.3392 6.01351 89.2313 5.90007 89.0708 5.82812C88.9103 5.75065 88.6613 5.71191 88.3237 5.71191V5.39648H92.001V5.71191C91.6302 5.71191 91.3812 5.75065 91.2539 5.82812C91.1266 5.90007 91.027 5.99137 90.9551 6.10205C90.8831 6.21273 90.8472 6.57243 90.8472 7.18115V11.0908C90.8472 11.8047 90.9108 12.2446 91.0381 12.4106C91.1654 12.5767 91.4863 12.6707 92.001 12.6929ZM94.1924 8.26025C94.1868 9.38916 94.4608 10.2746 95.0142 10.9165C95.5675 11.5584 96.2178 11.8794 96.9648 11.8794C97.4629 11.8794 97.8945 11.7438 98.2598 11.4727C98.6305 11.196 98.9404 10.7256 99.1895 10.0615L99.4468 10.2275C99.3306 10.9857 98.993 11.6774 98.4341 12.3027C97.8752 12.9225 97.1751 13.2324 96.334 13.2324C95.4209 13.2324 94.6379 12.8783 93.9849 12.1699C93.3374 11.4561 93.0137 10.4987 93.0137 9.29785C93.0137 7.9974 93.3457 6.9847 94.0098 6.25977C94.6794 5.5293 95.5177 5.16406 96.5249 5.16406C97.3771 5.16406 98.0771 5.44629 98.625 6.01074C99.1729 6.56966 99.4468 7.3195 99.4468 8.26025H94.1924ZM94.1924 7.77881H97.7119C97.6842 7.29183 97.6261 6.94873 97.5376 6.74951C97.3993 6.43962 97.1917 6.19613 96.915 6.01904C96.6439 5.84196 96.3589 5.75342 96.0601 5.75342C95.6007 5.75342 95.1885 5.93327 94.8232 6.29297C94.4635 6.64714 94.2533 7.14242 94.1924 7.77881ZM102.842 8.7915H106.129V7.18115C106.129 6.69971 106.11 6.38704 106.071 6.24316C106.032 6.09375 105.935 5.96924 105.78 5.86963C105.631 5.76449 105.362 5.71191 104.975 5.71191V5.39648H108.652V5.71191C108.309 5.71191 108.057 5.75065 107.897 5.82812C107.742 5.9056 107.637 6.01904 107.582 6.16846C107.526 6.31234 107.499 6.6499 107.499 7.18115V11.2153C107.499 11.6968 107.518 12.015 107.557 12.1699C107.601 12.3249 107.703 12.4521 107.864 12.5518C108.024 12.6458 108.287 12.6929 108.652 12.6929V13H104.975V12.6929C105.434 12.6929 105.742 12.6099 105.896 12.4438C106.051 12.2723 106.129 11.8628 106.129 11.2153V9.33105H102.842V11.2153C102.842 11.6968 102.861 12.015 102.9 12.1699C102.944 12.3249 103.047 12.4521 103.207 12.5518C103.368 12.6458 103.63 12.6929 103.996 12.6929V13H100.318V12.6929C100.811 12.6929 101.126 12.6043 101.265 12.4272C101.403 12.2446 101.472 11.8407 101.472 11.2153V7.18115C101.472 6.69971 101.45 6.38151 101.406 6.22656C101.367 6.07161 101.267 5.9471 101.107 5.85303C100.946 5.75895 100.684 5.71191 100.318 5.71191V5.39648H103.996V5.71191C103.653 5.71191 103.401 5.75065 103.24 5.82812C103.085 5.9056 102.98 6.01904 102.925 6.16846C102.869 6.31234 102.842 6.6499 102.842 7.18115V8.7915ZM117.194 13H114.953C114.255 11.9873 113.625 10.9497 113.06 9.88721C112.927 9.64372 112.806 9.46387 112.695 9.34766C112.59 9.22591 112.443 9.16504 112.255 9.16504C112.188 9.16504 112.083 9.17057 111.939 9.18164V11.2153C111.939 11.7632 111.97 12.1146 112.031 12.2695C112.097 12.4189 112.213 12.5269 112.379 12.5933C112.545 12.6597 112.825 12.6929 113.218 12.6929V13H109.416V12.6929C109.909 12.6929 110.224 12.6043 110.362 12.4272C110.501 12.2446 110.57 11.8407 110.57 11.2153V7.18115C110.57 6.58903 110.539 6.2404 110.479 6.13525C110.418 6.02458 110.324 5.92773 110.196 5.84473C110.069 5.75618 109.809 5.71191 109.416 5.71191V5.39648H113.218V5.71191C112.758 5.71191 112.473 5.74512 112.363 5.81152C112.258 5.87793 112.161 5.96094 112.072 6.06055C111.984 6.15462 111.939 6.52816 111.939 7.18115V8.67529C112.067 8.68636 112.153 8.69189 112.197 8.69189C112.534 8.69189 112.85 8.59782 113.143 8.40967C113.442 8.21598 113.708 7.80924 113.94 7.18945C114.156 6.60286 114.333 6.20719 114.471 6.00244C114.615 5.79769 114.812 5.63167 115.061 5.50439C115.315 5.37158 115.581 5.30518 115.857 5.30518C116.156 5.30518 116.394 5.37712 116.571 5.521C116.748 5.66488 116.837 5.85303 116.837 6.08545C116.837 6.27913 116.773 6.44515 116.646 6.5835C116.519 6.71631 116.342 6.78271 116.115 6.78271C115.993 6.78271 115.841 6.74951 115.658 6.68311C115.426 6.6001 115.249 6.55859 115.127 6.55859C114.872 6.55859 114.662 6.77718 114.496 7.21436C114.308 7.71794 114.17 8.04443 114.081 8.19385C113.993 8.33773 113.824 8.53141 113.575 8.7749C113.746 8.82471 113.932 8.95199 114.131 9.15674C114.336 9.36149 114.712 9.94531 115.26 10.9082C115.697 11.6774 116.023 12.1644 116.239 12.3691C116.461 12.5739 116.779 12.6818 117.194 12.6929V13ZM122.141 11.9043C121.361 12.5075 120.871 12.8561 120.672 12.9502C120.373 13.0885 120.055 13.1577 119.717 13.1577C119.192 13.1577 118.757 12.9779 118.414 12.6182C118.076 12.2585 117.908 11.7853 117.908 11.1987C117.908 10.828 117.991 10.507 118.157 10.2358C118.384 9.85954 118.777 9.50537 119.335 9.17334C119.9 8.84131 120.835 8.43734 122.141 7.96143V7.6626C122.141 6.90446 122.019 6.38428 121.776 6.10205C121.538 5.81982 121.189 5.67871 120.73 5.67871C120.381 5.67871 120.105 5.77279 119.9 5.96094C119.69 6.14909 119.584 6.36491 119.584 6.6084L119.601 7.08984C119.601 7.3444 119.535 7.54085 119.402 7.6792C119.275 7.81755 119.106 7.88672 118.896 7.88672C118.691 7.88672 118.522 7.81478 118.389 7.6709C118.262 7.52702 118.198 7.33057 118.198 7.08154C118.198 6.60563 118.442 6.16846 118.929 5.77002C119.416 5.37158 120.099 5.17236 120.979 5.17236C121.654 5.17236 122.208 5.28581 122.639 5.5127C122.966 5.68424 123.206 5.95264 123.361 6.31787C123.461 6.55583 123.511 7.04281 123.511 7.77881V10.3604C123.511 11.0853 123.525 11.5308 123.552 11.6968C123.58 11.8573 123.624 11.9652 123.685 12.0205C123.751 12.0758 123.826 12.1035 123.909 12.1035C123.998 12.1035 124.075 12.0841 124.142 12.0454C124.258 11.9735 124.482 11.7715 124.814 11.4395V11.9043C124.194 12.7344 123.602 13.1494 123.038 13.1494C122.766 13.1494 122.551 13.0553 122.39 12.8672C122.23 12.679 122.147 12.3581 122.141 11.9043ZM122.141 11.3647V8.46777C121.306 8.7998 120.766 9.03499 120.522 9.17334C120.085 9.41683 119.773 9.67139 119.584 9.93701C119.396 10.2026 119.302 10.4932 119.302 10.8086C119.302 11.207 119.421 11.5391 119.659 11.8047C119.897 12.0648 120.171 12.1948 120.481 12.1948C120.902 12.1948 121.455 11.9181 122.141 11.3647ZM137.265 13H135.024C134.327 11.9873 133.696 10.9497 133.131 9.88721C132.999 9.64372 132.877 9.46387 132.766 9.34766C132.661 9.22591 132.514 9.16504 132.326 9.16504C132.26 9.16504 132.155 9.17057 132.011 9.18164V11.2153C132.011 11.7632 132.041 12.1146 132.102 12.2695C132.168 12.4189 132.285 12.5269 132.451 12.5933C132.617 12.6597 132.896 12.6929 133.289 12.6929V13H129.487V12.6929C129.98 12.6929 130.295 12.6043 130.434 12.4272C130.572 12.2446 130.641 11.8407 130.641 11.2153V7.18115C130.641 6.58903 130.611 6.2404 130.55 6.13525C130.489 6.02458 130.395 5.92773 130.268 5.84473C130.14 5.75618 129.88 5.71191 129.487 5.71191V5.39648H133.289V5.71191C132.83 5.71191 132.545 5.74512 132.434 5.81152C132.329 5.87793 132.232 5.96094 132.144 6.06055C132.055 6.15462 132.011 6.52816 132.011 7.18115V8.67529C132.138 8.68636 132.224 8.69189 132.268 8.69189C132.606 8.69189 132.921 8.59782 133.214 8.40967C133.513 8.21598 133.779 7.80924 134.011 7.18945C134.227 6.60286 134.404 6.20719 134.542 6.00244C134.686 5.79769 134.883 5.63167 135.132 5.50439C135.386 5.37158 135.652 5.30518 135.929 5.30518C136.228 5.30518 136.465 5.37712 136.643 5.521C136.82 5.66488 136.908 5.85303 136.908 6.08545C136.908 6.27913 136.845 6.44515 136.717 6.5835C136.59 6.71631 136.413 6.78271 136.186 6.78271C136.064 6.78271 135.912 6.74951 135.729 6.68311C135.497 6.6001 135.32 6.55859 135.198 6.55859C134.944 6.55859 134.733 6.77718 134.567 7.21436C134.379 7.71794 134.241 8.04443 134.152 8.19385C134.064 8.33773 133.895 8.53141 133.646 8.7749C133.818 8.82471 134.003 8.95199 134.202 9.15674C134.407 9.36149 134.783 9.94531 135.331 10.9082C135.768 11.6774 136.095 12.1644 136.311 12.3691C136.532 12.5739 136.85 12.6818 137.265 12.6929V13ZM142.212 11.9043C141.432 12.5075 140.942 12.8561 140.743 12.9502C140.444 13.0885 140.126 13.1577 139.789 13.1577C139.263 13.1577 138.828 12.9779 138.485 12.6182C138.148 12.2585 137.979 11.7853 137.979 11.1987C137.979 10.828 138.062 10.507 138.228 10.2358C138.455 9.85954 138.848 9.50537 139.407 9.17334C139.971 8.84131 140.906 8.43734 142.212 7.96143V7.6626C142.212 6.90446 142.091 6.38428 141.847 6.10205C141.609 5.81982 141.261 5.67871 140.801 5.67871C140.453 5.67871 140.176 5.77279 139.971 5.96094C139.761 6.14909 139.656 6.36491 139.656 6.6084L139.672 7.08984C139.672 7.3444 139.606 7.54085 139.473 7.6792C139.346 7.81755 139.177 7.88672 138.967 7.88672C138.762 7.88672 138.593 7.81478 138.46 7.6709C138.333 7.52702 138.27 7.33057 138.27 7.08154C138.27 6.60563 138.513 6.16846 139 5.77002C139.487 5.37158 140.17 5.17236 141.05 5.17236C141.725 5.17236 142.279 5.28581 142.71 5.5127C143.037 5.68424 143.278 5.95264 143.433 6.31787C143.532 6.55583 143.582 7.04281 143.582 7.77881V10.3604C143.582 11.0853 143.596 11.5308 143.624 11.6968C143.651 11.8573 143.695 11.9652 143.756 12.0205C143.823 12.0758 143.897 12.1035 143.98 12.1035C144.069 12.1035 144.146 12.0841 144.213 12.0454C144.329 11.9735 144.553 11.7715 144.885 11.4395V11.9043C144.265 12.7344 143.673 13.1494 143.109 13.1494C142.838 13.1494 142.622 13.0553 142.461 12.8672C142.301 12.679 142.218 12.3581 142.212 11.9043ZM142.212 11.3647V8.46777C141.377 8.7998 140.837 9.03499 140.594 9.17334C140.157 9.41683 139.844 9.67139 139.656 9.93701C139.468 10.2026 139.374 10.4932 139.374 10.8086C139.374 11.207 139.493 11.5391 139.73 11.8047C139.968 12.0648 140.242 12.1948 140.552 12.1948C140.973 12.1948 141.526 11.9181 142.212 11.3647ZM150.571 8.80811V7.18115C150.571 6.65544 150.544 6.31787 150.488 6.16846C150.438 6.01351 150.331 5.90007 150.165 5.82812C150.004 5.75065 149.758 5.71191 149.426 5.71191V5.39648H153.103V5.71191C152.727 5.71191 152.475 5.75065 152.348 5.82812C152.226 5.90007 152.129 5.99137 152.057 6.10205C151.985 6.21273 151.949 6.57243 151.949 7.18115V11.2153C151.949 11.741 151.974 12.0814 152.024 12.2363C152.079 12.3857 152.187 12.4992 152.348 12.5767C152.514 12.6541 152.765 12.6929 153.103 12.6929V13H149.243V12.6929C149.686 12.6763 149.974 12.6486 150.106 12.6099C150.245 12.5656 150.355 12.4577 150.438 12.2861C150.527 12.1146 150.571 11.7576 150.571 11.2153V9.35596C149.758 9.771 148.9 9.97852 147.998 9.97852C147.506 9.97852 147.124 9.91764 146.853 9.7959C146.581 9.66862 146.41 9.52474 146.338 9.36426C146.266 9.19824 146.23 8.93262 146.23 8.56738V7.18115C146.23 6.68864 146.208 6.36491 146.164 6.20996C146.119 6.05501 146.02 5.93327 145.865 5.84473C145.71 5.75618 145.48 5.71191 145.176 5.71191V5.39648H148.753V5.71191C148.383 5.71191 148.134 5.75065 148.006 5.82812C147.879 5.90007 147.779 5.99137 147.708 6.10205C147.636 6.21273 147.6 6.57243 147.6 7.18115V8.11914C147.6 8.48438 147.625 8.73063 147.674 8.85791C147.73 8.98519 147.851 9.0931 148.04 9.18164C148.233 9.26465 148.504 9.30615 148.853 9.30615C149.456 9.30615 150.029 9.14014 150.571 8.80811ZM155.286 8.26025C155.281 9.38916 155.555 10.2746 156.108 10.9165C156.661 11.5584 157.312 11.8794 158.059 11.8794C158.557 11.8794 158.988 11.7438 159.354 11.4727C159.724 11.196 160.034 10.7256 160.283 10.0615L160.541 10.2275C160.424 10.9857 160.087 11.6774 159.528 12.3027C158.969 12.9225 158.269 13.2324 157.428 13.2324C156.515 13.2324 155.732 12.8783 155.079 12.1699C154.431 11.4561 154.107 10.4987 154.107 9.29785C154.107 7.9974 154.439 6.9847 155.104 6.25977C155.773 5.5293 156.611 5.16406 157.619 5.16406C158.471 5.16406 159.171 5.44629 159.719 6.01074C160.267 6.56966 160.541 7.3195 160.541 8.26025H155.286ZM155.286 7.77881H158.806C158.778 7.29183 158.72 6.94873 158.631 6.74951C158.493 6.43962 158.285 6.19613 158.009 6.01904C157.738 5.84196 157.453 5.75342 157.154 5.75342C156.694 5.75342 156.282 5.93327 155.917 6.29297C155.557 6.64714 155.347 7.14242 155.286 7.77881ZM168.02 10.1113C167.815 11.113 167.414 11.8849 166.816 12.4272C166.218 12.964 165.557 13.2324 164.832 13.2324C163.969 13.2324 163.216 12.87 162.574 12.145C161.932 11.4201 161.611 10.4406 161.611 9.20654C161.611 8.01123 161.965 7.04004 162.674 6.29297C163.388 5.5459 164.243 5.17236 165.239 5.17236C165.986 5.17236 166.6 5.37158 167.082 5.77002C167.563 6.16292 167.804 6.57243 167.804 6.99854C167.804 7.20882 167.735 7.38037 167.596 7.51318C167.463 7.64046 167.275 7.7041 167.032 7.7041C166.705 7.7041 166.459 7.59896 166.293 7.38867C166.199 7.27246 166.135 7.05111 166.102 6.72461C166.074 6.39811 165.964 6.14909 165.77 5.97754C165.576 5.81152 165.308 5.72852 164.965 5.72852C164.411 5.72852 163.966 5.93327 163.628 6.34277C163.18 6.88509 162.956 7.60173 162.956 8.49268C162.956 9.40023 163.177 10.2026 163.62 10.8999C164.068 11.5916 164.672 11.9375 165.43 11.9375C165.972 11.9375 166.459 11.7521 166.891 11.3813C167.195 11.1268 167.491 10.6647 167.779 9.99512L168.02 10.1113ZM168.999 5.39648H175.573L175.905 7.45508H175.532C175.465 7.04004 175.355 6.71908 175.2 6.49219C175.045 6.2653 174.868 6.11589 174.668 6.04395C174.469 5.97201 174.129 5.93604 173.647 5.93604H172.983V11.2153C172.983 11.7798 173.017 12.1395 173.083 12.2944C173.155 12.4438 173.268 12.5435 173.423 12.5933C173.578 12.6431 173.932 12.6763 174.486 12.6929V13H170.352V12.6929C170.883 12.6818 171.224 12.596 171.373 12.4355C171.528 12.2751 171.605 11.8683 171.605 11.2153V5.93604H170.925C170.449 5.93604 170.125 5.96647 169.954 6.02734C169.782 6.08268 169.616 6.22103 169.456 6.44238C169.301 6.6582 169.168 6.99577 169.057 7.45508H168.684L168.999 5.39648ZM181.375 8.98242C182.764 9.27018 183.459 9.92041 183.459 10.9331C183.459 11.6248 183.168 12.1423 182.587 12.4854C182.012 12.8285 181.207 13 180.172 13H176.42V12.6929C176.912 12.6929 177.222 12.6016 177.35 12.4189C177.482 12.2308 177.549 11.8296 177.549 11.2153V7.18115C177.549 6.5835 177.518 6.2321 177.458 6.12695C177.402 6.02181 177.311 5.92773 177.184 5.84473C177.062 5.75618 176.807 5.71191 176.42 5.71191V5.39648H179.923C180.598 5.39648 181.143 5.44906 181.558 5.5542C181.979 5.65934 182.322 5.86686 182.587 6.17676C182.859 6.48665 182.994 6.86296 182.994 7.30566C182.994 8.16895 182.455 8.72786 181.375 8.98242ZM178.927 8.7915C179.17 8.79704 179.317 8.7998 179.367 8.7998C180.125 8.7998 180.673 8.65592 181.01 8.36816C181.348 8.07487 181.517 7.7207 181.517 7.30566C181.517 6.82422 181.345 6.47559 181.002 6.25977C180.659 6.04395 180.111 5.93604 179.358 5.93604H178.927V8.7915ZM178.927 12.3276C179.203 12.4162 179.533 12.4604 179.915 12.4604C180.573 12.4604 181.063 12.3166 181.384 12.0288C181.705 11.741 181.865 11.3703 181.865 10.9165C181.865 10.4074 181.658 10.0173 181.243 9.74609C180.828 9.47493 180.252 9.33936 179.516 9.33936C179.333 9.33936 179.137 9.34489 178.927 9.35596V12.3276ZM188.896 11.9043C188.116 12.5075 187.626 12.8561 187.427 12.9502C187.128 13.0885 186.81 13.1577 186.472 13.1577C185.946 13.1577 185.512 12.9779 185.169 12.6182C184.831 12.2585 184.663 11.7853 184.663 11.1987C184.663 10.828 184.746 10.507 184.912 10.2358C185.139 9.85954 185.531 9.50537 186.09 9.17334C186.655 8.84131 187.59 8.43734 188.896 7.96143V7.6626C188.896 6.90446 188.774 6.38428 188.531 6.10205C188.293 5.81982 187.944 5.67871 187.485 5.67871C187.136 5.67871 186.86 5.77279 186.655 5.96094C186.444 6.14909 186.339 6.36491 186.339 6.6084L186.356 7.08984C186.356 7.3444 186.29 7.54085 186.157 7.6792C186.029 7.81755 185.861 7.88672 185.65 7.88672C185.446 7.88672 185.277 7.81478 185.144 7.6709C185.017 7.52702 184.953 7.33057 184.953 7.08154C184.953 6.60563 185.197 6.16846 185.684 5.77002C186.171 5.37158 186.854 5.17236 187.734 5.17236C188.409 5.17236 188.962 5.28581 189.394 5.5127C189.721 5.68424 189.961 5.95264 190.116 6.31787C190.216 6.55583 190.266 7.04281 190.266 7.77881V10.3604C190.266 11.0853 190.279 11.5308 190.307 11.6968C190.335 11.8573 190.379 11.9652 190.44 12.0205C190.506 12.0758 190.581 12.1035 190.664 12.1035C190.753 12.1035 190.83 12.0841 190.896 12.0454C191.013 11.9735 191.237 11.7715 191.569 11.4395V11.9043C190.949 12.7344 190.357 13.1494 189.792 13.1494C189.521 13.1494 189.306 13.0553 189.145 12.8672C188.985 12.679 188.902 12.3581 188.896 11.9043ZM188.896 11.3647V8.46777C188.06 8.7998 187.521 9.03499 187.277 9.17334C186.84 9.41683 186.528 9.67139 186.339 9.93701C186.151 10.2026 186.057 10.4932 186.057 10.8086C186.057 11.207 186.176 11.5391 186.414 11.8047C186.652 12.0648 186.926 12.1948 187.236 12.1948C187.656 12.1948 188.21 11.9181 188.896 11.3647ZM195.96 5.39648H199.504V5.70361H199.33C199.081 5.70361 198.893 5.75895 198.766 5.86963C198.644 5.97477 198.583 6.10758 198.583 6.26807C198.583 6.48389 198.674 6.78271 198.857 7.16455L200.708 10.9995L202.41 6.79932C202.504 6.57243 202.551 6.34831 202.551 6.12695C202.551 6.02734 202.531 5.95264 202.493 5.90283C202.448 5.84196 202.379 5.79492 202.285 5.76172C202.191 5.72298 202.025 5.70361 201.787 5.70361V5.39648H204.261V5.70361C204.056 5.72575 203.898 5.77002 203.788 5.83643C203.677 5.90283 203.555 6.02734 203.422 6.20996C203.373 6.28743 203.278 6.50049 203.14 6.84912L200.044 14.436C199.745 15.172 199.352 15.7282 198.865 16.1045C198.384 16.4808 197.919 16.6689 197.471 16.6689C197.144 16.6689 196.876 16.5749 196.666 16.3867C196.455 16.1986 196.35 15.9827 196.35 15.7393C196.35 15.5068 196.425 15.3187 196.574 15.1748C196.729 15.0365 196.939 14.9673 197.205 14.9673C197.388 14.9673 197.637 15.0282 197.952 15.1499C198.174 15.2329 198.312 15.2744 198.367 15.2744C198.533 15.2744 198.713 15.1886 198.907 15.0171C199.106 14.8455 199.305 14.5135 199.504 14.021L200.044 12.7012L197.313 6.96533C197.23 6.79378 197.097 6.58073 196.915 6.32617C196.776 6.13249 196.663 6.00244 196.574 5.93604C196.447 5.84749 196.242 5.77002 195.96 5.70361V5.39648ZM211.35 10.1113C211.145 11.113 210.744 11.8849 210.146 12.4272C209.548 12.964 208.887 13.2324 208.162 13.2324C207.299 13.2324 206.546 12.87 205.904 12.145C205.262 11.4201 204.941 10.4406 204.941 9.20654C204.941 8.01123 205.296 7.04004 206.004 6.29297C206.718 5.5459 207.573 5.17236 208.569 5.17236C209.316 5.17236 209.93 5.37158 210.412 5.77002C210.893 6.16292 211.134 6.57243 211.134 6.99854C211.134 7.20882 211.065 7.38037 210.926 7.51318C210.793 7.64046 210.605 7.7041 210.362 7.7041C210.035 7.7041 209.789 7.59896 209.623 7.38867C209.529 7.27246 209.465 7.05111 209.432 6.72461C209.404 6.39811 209.294 6.14909 209.1 5.97754C208.906 5.81152 208.638 5.72852 208.295 5.72852C207.742 5.72852 207.296 5.93327 206.958 6.34277C206.51 6.88509 206.286 7.60173 206.286 8.49268C206.286 9.40023 206.507 10.2026 206.95 10.8999C207.398 11.5916 208.002 11.9375 208.76 11.9375C209.302 11.9375 209.789 11.7521 210.221 11.3813C210.525 11.1268 210.821 10.6647 211.109 9.99512L211.35 10.1113ZM213.226 5.39648H220.024V5.71191C219.648 5.71191 219.396 5.75065 219.269 5.82812C219.147 5.90007 219.05 5.99137 218.978 6.10205C218.906 6.21273 218.87 6.57243 218.87 7.18115V11.2153C218.87 11.8019 218.901 12.1533 218.961 12.2695C219.022 12.3802 219.116 12.4798 219.244 12.5684C219.376 12.6514 219.637 12.6929 220.024 12.6929V13H216.089V12.6929C216.515 12.6929 216.809 12.6707 216.969 12.6265C217.135 12.5822 217.265 12.4771 217.359 12.311C217.453 12.1395 217.5 11.7743 217.5 11.2153V5.93604H214.969V9.14014C214.969 10.3521 214.913 11.2043 214.803 11.6968C214.698 12.1838 214.485 12.5462 214.164 12.7842C213.848 13.0166 213.486 13.1328 213.076 13.1328C212.368 13.1328 212.014 12.8395 212.014 12.2529C212.014 12.0537 212.069 11.8905 212.18 11.7632C212.296 11.6359 212.445 11.5723 212.628 11.5723C212.822 11.5723 213.001 11.6525 213.167 11.813C213.383 12.0233 213.547 12.1284 213.657 12.1284C213.906 12.1284 214.086 11.9209 214.197 11.5059C214.313 11.0853 214.371 10.3521 214.371 9.30615V7.62939C214.371 6.76611 214.307 6.2404 214.18 6.05225C214.058 5.8641 213.74 5.75065 213.226 5.71191V5.39648ZM220.497 5.39648H224.042V5.70361H223.867C223.618 5.70361 223.43 5.75895 223.303 5.86963C223.181 5.97477 223.12 6.10758 223.12 6.26807C223.12 6.48389 223.211 6.78271 223.394 7.16455L225.245 10.9995L226.947 6.79932C227.041 6.57243 227.088 6.34831 227.088 6.12695C227.088 6.02734 227.069 5.95264 227.03 5.90283C226.986 5.84196 226.916 5.79492 226.822 5.76172C226.728 5.72298 226.562 5.70361 226.324 5.70361V5.39648H228.798V5.70361C228.593 5.72575 228.435 5.77002 228.325 5.83643C228.214 5.90283 228.092 6.02734 227.959 6.20996C227.91 6.28743 227.816 6.50049 227.677 6.84912L224.581 14.436C224.282 15.172 223.889 15.7282 223.402 16.1045C222.921 16.4808 222.456 16.6689 222.008 16.6689C221.681 16.6689 221.413 16.5749 221.203 16.3867C220.992 16.1986 220.887 15.9827 220.887 15.7393C220.887 15.5068 220.962 15.3187 221.111 15.1748C221.266 15.0365 221.477 14.9673 221.742 14.9673C221.925 14.9673 222.174 15.0282 222.489 15.1499C222.711 15.2329 222.849 15.2744 222.904 15.2744C223.07 15.2744 223.25 15.1886 223.444 15.0171C223.643 14.8455 223.842 14.5135 224.042 14.021L224.581 12.7012L221.85 6.96533C221.767 6.79378 221.634 6.58073 221.452 6.32617C221.313 6.13249 221.2 6.00244 221.111 5.93604C220.984 5.84749 220.779 5.77002 220.497 5.70361V5.39648ZM235.455 5.39648L235.762 7.47168H235.397C235.187 6.78548 234.974 6.35938 234.758 6.19336C234.548 6.02181 234.099 5.93604 233.413 5.93604H231.803V11.2153C231.803 11.8019 231.833 12.1533 231.894 12.2695C231.955 12.3802 232.049 12.4798 232.176 12.5684C232.309 12.6514 232.569 12.6929 232.957 12.6929V13H229.155V12.6929C229.697 12.6818 230.046 12.5988 230.201 12.4438C230.356 12.2834 230.433 11.8739 230.433 11.2153V7.18115C230.433 6.64437 230.403 6.30127 230.342 6.15186C230.281 5.99691 230.173 5.88623 230.018 5.81982C229.869 5.75342 229.581 5.71745 229.155 5.71191V5.39648H235.455ZM71.0996 25.3965H74.644V25.7036H74.4697C74.2207 25.7036 74.0326 25.759 73.9053 25.8696C73.7835 25.9748 73.7227 26.1076 73.7227 26.2681C73.7227 26.4839 73.814 26.7827 73.9966 27.1646L75.8477 30.9995L77.5493 26.7993C77.6434 26.5724 77.6904 26.3483 77.6904 26.127C77.6904 26.0273 77.6711 25.9526 77.6323 25.9028C77.5881 25.842 77.5189 25.7949 77.4248 25.7617C77.3307 25.723 77.1647 25.7036 76.9268 25.7036V25.3965H79.4004V25.7036C79.1956 25.7257 79.0379 25.77 78.9272 25.8364C78.8166 25.9028 78.6948 26.0273 78.562 26.21C78.5122 26.2874 78.4181 26.5005 78.2798 26.8491L75.1836 34.436C74.8848 35.172 74.4919 35.7282 74.0049 36.1045C73.5234 36.4808 73.0586 36.6689 72.6104 36.6689C72.2839 36.6689 72.0155 36.5749 71.8052 36.3867C71.5949 36.1986 71.4897 35.9827 71.4897 35.7393C71.4897 35.5068 71.5645 35.3187 71.7139 35.1748C71.8688 35.0365 72.0791 34.9673 72.3447 34.9673C72.5273 34.9673 72.7764 35.0282 73.0918 35.1499C73.3132 35.2329 73.4515 35.2744 73.5068 35.2744C73.6729 35.2744 73.8527 35.1886 74.0464 35.0171C74.2456 34.8455 74.4448 34.5135 74.644 34.021L75.1836 32.7012L72.4526 26.9653C72.3696 26.7938 72.2368 26.5807 72.0542 26.3262C71.9159 26.1325 71.8024 26.0024 71.7139 25.936C71.5866 25.8475 71.3818 25.77 71.0996 25.7036V25.3965ZM85.1445 28.8081V27.1812C85.1445 26.6554 85.1169 26.3179 85.0615 26.1685C85.0117 26.0135 84.9038 25.9001 84.7378 25.8281C84.5773 25.7507 84.3311 25.7119 83.999 25.7119V25.3965H87.6763V25.7119C87.3 25.7119 87.0482 25.7507 86.9209 25.8281C86.7992 25.9001 86.7023 25.9914 86.6304 26.1021C86.5584 26.2127 86.5225 26.5724 86.5225 27.1812V31.2153C86.5225 31.741 86.5474 32.0814 86.5972 32.2363C86.6525 32.3857 86.7604 32.4992 86.9209 32.5767C87.0869 32.6541 87.3387 32.6929 87.6763 32.6929V33H83.8164V32.6929C84.2591 32.6763 84.5469 32.6486 84.6797 32.6099C84.818 32.5656 84.9287 32.4577 85.0117 32.2861C85.1003 32.1146 85.1445 31.7576 85.1445 31.2153V29.356C84.3311 29.771 83.4733 29.9785 82.5713 29.9785C82.0788 29.9785 81.6969 29.9176 81.4258 29.7959C81.1546 29.6686 80.9831 29.5247 80.9111 29.3643C80.8392 29.1982 80.8032 28.9326 80.8032 28.5674V27.1812C80.8032 26.6886 80.7811 26.3649 80.7368 26.21C80.6925 26.055 80.5929 25.9333 80.438 25.8447C80.283 25.7562 80.0534 25.7119 79.749 25.7119V25.3965H83.3267V25.7119C82.9559 25.7119 82.7069 25.7507 82.5796 25.8281C82.4523 25.9001 82.3527 25.9914 82.2808 26.1021C82.2088 26.2127 82.1729 26.5724 82.1729 27.1812V28.1191C82.1729 28.4844 82.1978 28.7306 82.2476 28.8579C82.3029 28.9852 82.4246 29.0931 82.6128 29.1816C82.8065 29.2646 83.0776 29.3062 83.4263 29.3062C84.0295 29.3062 84.6022 29.1401 85.1445 28.8081ZM88.0332 26.1519L90.374 25.2056H90.6895V26.9819C91.0824 26.3123 91.4753 25.8447 91.8682 25.5791C92.2666 25.3079 92.6844 25.1724 93.1216 25.1724C93.8853 25.1724 94.5216 25.4712 95.0308 26.0688C95.6561 26.7993 95.9688 27.7511 95.9688 28.9243C95.9688 30.2358 95.5924 31.3205 94.8398 32.1782C94.2201 32.881 93.4398 33.2324 92.499 33.2324C92.0895 33.2324 91.7354 33.1743 91.4365 33.0581C91.2152 32.9751 90.9661 32.8091 90.6895 32.5601V34.876C90.6895 35.3962 90.7199 35.7254 90.7808 35.8638C90.8472 36.0076 90.9578 36.1211 91.1128 36.2041C91.2733 36.2871 91.561 36.3286 91.9761 36.3286V36.6357H87.9917V36.3286H88.1992C88.5036 36.3341 88.7637 36.276 88.9795 36.1543C89.0846 36.0934 89.1649 35.9938 89.2202 35.8555C89.2811 35.7227 89.3115 35.3796 89.3115 34.8262V27.6377C89.3115 27.1452 89.2894 26.8325 89.2451 26.6997C89.2008 26.5669 89.1289 26.4673 89.0293 26.4009C88.9352 26.3345 88.8052 26.3013 88.6392 26.3013C88.5063 26.3013 88.3376 26.34 88.1328 26.4175L88.0332 26.1519ZM90.6895 27.4717V30.3105C90.6895 30.9248 90.7144 31.3288 90.7642 31.5225C90.8416 31.8434 91.0298 32.1257 91.3286 32.3691C91.633 32.6126 92.0148 32.7344 92.4741 32.7344C93.0275 32.7344 93.4757 32.5186 93.8188 32.0869C94.2671 31.5225 94.4912 30.7284 94.4912 29.7046C94.4912 28.5425 94.2367 27.6488 93.7275 27.0234C93.3734 26.5918 92.9528 26.376 92.4658 26.376C92.2002 26.376 91.9373 26.4424 91.6772 26.5752C91.478 26.6748 91.1488 26.9736 90.6895 27.4717ZM98.3594 28.2603C98.3538 29.3892 98.6278 30.2746 99.1812 30.9165C99.7345 31.5584 100.385 31.8794 101.132 31.8794C101.63 31.8794 102.062 31.7438 102.427 31.4727C102.798 31.196 103.107 30.7256 103.356 30.0615L103.614 30.2275C103.498 30.9857 103.16 31.6774 102.601 32.3027C102.042 32.9225 101.342 33.2324 100.501 33.2324C99.5879 33.2324 98.8049 32.8783 98.1519 32.1699C97.5044 31.4561 97.1807 30.4987 97.1807 29.2979C97.1807 27.9974 97.5127 26.9847 98.1768 26.2598C98.8464 25.5293 99.6847 25.1641 100.692 25.1641C101.544 25.1641 102.244 25.4463 102.792 26.0107C103.34 26.5697 103.614 27.3195 103.614 28.2603H98.3594ZM98.3594 27.7788H101.879C101.851 27.2918 101.793 26.9487 101.705 26.7495C101.566 26.4396 101.359 26.1961 101.082 26.019C100.811 25.842 100.526 25.7534 100.227 25.7534C99.7677 25.7534 99.3555 25.9333 98.9902 26.293C98.6305 26.6471 98.4202 27.1424 98.3594 27.7788ZM108.104 33V32.6929C108.619 32.6431 108.946 32.5075 109.084 32.2861C109.222 32.0592 109.292 31.5999 109.292 30.9082V29.1816C108.926 29.1816 108.683 29.2231 108.561 29.3062C108.445 29.3892 108.246 29.7018 107.963 30.2441L106.536 33H104.294V32.6929C104.682 32.6652 104.975 32.5573 105.174 32.3691C105.374 32.1755 105.642 31.7383 105.979 31.0576C106.494 30.0228 106.87 29.3975 107.108 29.1816C107.346 28.9603 107.604 28.8385 107.88 28.8164C107.543 28.6725 107.225 28.2188 106.926 27.4551C106.782 27.0954 106.668 26.8602 106.585 26.7495C106.502 26.6333 106.389 26.5752 106.245 26.5752C106.134 26.5752 105.993 26.6084 105.822 26.6748C105.573 26.7744 105.379 26.8242 105.241 26.8242C105.019 26.8242 104.845 26.7495 104.718 26.6001C104.59 26.4507 104.527 26.2708 104.527 26.0605C104.527 25.8171 104.624 25.6317 104.817 25.5044C105.011 25.3716 105.238 25.3052 105.498 25.3052C105.952 25.3052 106.314 25.4408 106.585 25.7119C106.862 25.9775 107.125 26.4562 107.374 27.1479C107.612 27.8065 107.88 28.2354 108.179 28.4346C108.478 28.6338 108.849 28.7334 109.292 28.7334V27.4883C109.292 26.7744 109.217 26.3123 109.067 26.1021C108.924 25.8918 108.603 25.7617 108.104 25.7119V25.3965H111.856V25.7119C111.353 25.7673 111.029 25.9001 110.885 26.1104C110.741 26.3206 110.669 26.7799 110.669 27.4883V28.7334C111.107 28.7334 111.475 28.6338 111.773 28.4346C112.072 28.2354 112.341 27.8065 112.579 27.1479C112.877 26.2957 113.187 25.7756 113.508 25.5874C113.835 25.3993 114.145 25.3052 114.438 25.3052C114.764 25.3052 115.011 25.3799 115.177 25.5293C115.348 25.6787 115.434 25.8558 115.434 26.0605C115.434 26.2708 115.37 26.4507 115.243 26.6001C115.116 26.7495 114.942 26.8242 114.72 26.8242C114.582 26.8242 114.388 26.7744 114.139 26.6748C113.968 26.6084 113.835 26.5752 113.741 26.5752C113.58 26.5752 113.458 26.6333 113.375 26.7495C113.292 26.8602 113.179 27.0954 113.035 27.4551C112.736 28.2188 112.418 28.6725 112.081 28.8164C112.368 28.8385 112.631 28.9658 112.869 29.1982C113.107 29.4307 113.472 30.0422 113.965 31.0327C114.313 31.73 114.587 32.1755 114.787 32.3691C114.986 32.5573 115.279 32.6652 115.667 32.6929V33H113.425L111.998 30.2441C111.715 29.7018 111.513 29.3892 111.392 29.3062C111.275 29.2231 111.035 29.1816 110.669 29.1816V30.9082C110.669 31.6995 110.75 32.181 110.91 32.3525C111.076 32.5186 111.392 32.632 111.856 32.6929V33H108.104ZM117.426 25.3965H124.133V25.7119C123.757 25.7119 123.505 25.7507 123.378 25.8281C123.256 25.9001 123.159 25.9914 123.087 26.1021C123.015 26.2127 122.979 26.5724 122.979 27.1812V30.9414C122.979 31.7327 123.046 32.2197 123.179 32.4023C123.317 32.5794 123.635 32.6763 124.133 32.6929V35.1084H123.818C123.796 34.6546 123.682 34.259 123.478 33.9214C123.278 33.5838 122.999 33.3459 122.639 33.2075C122.279 33.0692 121.748 33 121.045 33H119.086C118.478 33 118.002 33.0526 117.659 33.1577C117.316 33.2684 117.028 33.4953 116.795 33.8384C116.569 34.1815 116.43 34.6048 116.38 35.1084H116.073V32.6929C116.527 32.6763 116.939 32.4964 117.31 32.1533C117.681 31.8102 118.007 31.1379 118.29 30.1362C118.572 29.1346 118.713 28.1496 118.713 27.1812C118.713 26.2293 118.284 25.7396 117.426 25.7119V25.3965ZM119.261 25.936V26.3926C119.261 29.1097 118.768 31.1323 117.783 32.4604H120.605C121.115 32.4604 121.408 32.4189 121.485 32.3359C121.563 32.2474 121.602 31.9292 121.602 31.3813V25.936H119.261ZM126.316 28.2603C126.311 29.3892 126.585 30.2746 127.138 30.9165C127.692 31.5584 128.342 31.8794 129.089 31.8794C129.587 31.8794 130.019 31.7438 130.384 31.4727C130.755 31.196 131.064 30.7256 131.313 30.0615L131.571 30.2275C131.455 30.9857 131.117 31.6774 130.558 32.3027C129.999 32.9225 129.299 33.2324 128.458 33.2324C127.545 33.2324 126.762 32.8783 126.109 32.1699C125.461 31.4561 125.138 30.4987 125.138 29.2979C125.138 27.9974 125.47 26.9847 126.134 26.2598C126.803 25.5293 127.642 25.1641 128.649 25.1641C129.501 25.1641 130.201 25.4463 130.749 26.0107C131.297 26.5697 131.571 27.3195 131.571 28.2603H126.316ZM126.316 27.7788H129.836C129.808 27.2918 129.75 26.9487 129.662 26.7495C129.523 26.4396 129.316 26.1961 129.039 26.019C128.768 25.842 128.483 25.7534 128.184 25.7534C127.725 25.7534 127.312 25.9333 126.947 26.293C126.588 26.6471 126.377 27.1424 126.316 27.7788ZM134.966 28.7915H138.253V27.1812C138.253 26.6997 138.234 26.387 138.195 26.2432C138.156 26.0938 138.059 25.9692 137.904 25.8696C137.755 25.7645 137.486 25.7119 137.099 25.7119V25.3965H140.776V25.7119C140.433 25.7119 140.181 25.7507 140.021 25.8281C139.866 25.9056 139.761 26.019 139.706 26.1685C139.65 26.3123 139.623 26.6499 139.623 27.1812V31.2153C139.623 31.6968 139.642 32.015 139.681 32.1699C139.725 32.3249 139.827 32.4521 139.988 32.5518C140.148 32.6458 140.411 32.6929 140.776 32.6929V33H137.099V32.6929C137.558 32.6929 137.866 32.6099 138.021 32.4438C138.175 32.2723 138.253 31.8628 138.253 31.2153V29.3311H134.966V31.2153C134.966 31.6968 134.985 32.015 135.024 32.1699C135.068 32.3249 135.171 32.4521 135.331 32.5518C135.492 32.6458 135.754 32.6929 136.12 32.6929V33H132.442V32.6929C132.935 32.6929 133.25 32.6043 133.389 32.4272C133.527 32.2446 133.596 31.8407 133.596 31.2153V27.1812C133.596 26.6997 133.574 26.3815 133.53 26.2266C133.491 26.0716 133.391 25.9471 133.231 25.853C133.07 25.759 132.808 25.7119 132.442 25.7119V25.3965H136.12V25.7119C135.777 25.7119 135.525 25.7507 135.364 25.8281C135.209 25.9056 135.104 26.019 135.049 26.1685C134.993 26.3123 134.966 26.6499 134.966 27.1812V28.7915ZM144.063 30.6592L147.351 26.8574C147.34 26.4313 147.259 26.1353 147.11 25.9692C146.96 25.8032 146.703 25.7174 146.338 25.7119V25.3965H149.874V25.7119C149.503 25.7119 149.254 25.7507 149.127 25.8281C149 25.9001 148.9 25.9914 148.828 26.1021C148.756 26.2127 148.72 26.5724 148.72 27.1812V31.2153C148.72 31.8019 148.751 32.1533 148.812 32.2695C148.872 32.3802 148.966 32.4798 149.094 32.5684C149.227 32.6514 149.487 32.6929 149.874 32.6929V33H146.197V32.6929C146.656 32.6929 146.963 32.6099 147.118 32.4438C147.273 32.2723 147.351 31.8628 147.351 31.2153V27.6377L144.063 31.4478C144.075 31.9181 144.141 32.2419 144.263 32.4189C144.384 32.596 144.647 32.6873 145.051 32.6929V33H141.54V32.6929C142.033 32.6929 142.348 32.6043 142.486 32.4272C142.625 32.2446 142.694 31.8407 142.694 31.2153V27.1812C142.694 26.589 142.663 26.2404 142.603 26.1353C142.542 26.0246 142.448 25.9277 142.32 25.8447C142.193 25.7562 141.933 25.7119 141.54 25.7119V25.3965H145.217V25.7119C144.847 25.7119 144.597 25.7507 144.47 25.8281C144.343 25.9001 144.243 25.9914 144.171 26.1021C144.099 26.2127 144.063 26.5724 144.063 27.1812V30.6592ZM152.082 22.3501C152.082 22.1564 152.135 22.0015 152.24 21.8853C152.35 21.7635 152.489 21.7026 152.655 21.7026C153.02 21.7026 153.344 22.0457 153.626 22.7319C153.786 23.1193 153.969 23.3628 154.174 23.4624C154.384 23.5565 154.589 23.6035 154.788 23.6035C155.137 23.6035 155.4 23.5288 155.577 23.3794C155.754 23.23 155.92 22.9616 156.075 22.5742C156.307 21.9987 156.592 21.7109 156.93 21.7109C157.096 21.7109 157.237 21.7718 157.353 21.8936C157.469 22.0098 157.527 22.1564 157.527 22.3335C157.527 22.7596 157.248 23.1553 156.689 23.5205C156.13 23.8857 155.502 24.0684 154.805 24.0684C153.892 24.0684 153.208 23.9023 152.754 23.5703C152.306 23.2383 152.082 22.8315 152.082 22.3501ZM153.161 30.6592L156.448 26.8574C156.437 26.4313 156.357 26.1353 156.208 25.9692C156.058 25.8032 155.801 25.7174 155.436 25.7119V25.3965H158.972V25.7119C158.601 25.7119 158.352 25.7507 158.225 25.8281C158.097 25.9001 157.998 25.9914 157.926 26.1021C157.854 26.2127 157.818 26.5724 157.818 27.1812V31.2153C157.818 31.8019 157.848 32.1533 157.909 32.2695C157.97 32.3802 158.064 32.4798 158.191 32.5684C158.324 32.6514 158.584 32.6929 158.972 32.6929V33H155.294V32.6929C155.754 32.6929 156.061 32.6099 156.216 32.4438C156.371 32.2723 156.448 31.8628 156.448 31.2153V27.6377L153.161 31.4478C153.172 31.9181 153.239 32.2419 153.36 32.4189C153.482 32.596 153.745 32.6873 154.149 32.6929V33H150.638V32.6929C151.13 32.6929 151.446 32.6043 151.584 32.4272C151.722 32.2446 151.792 31.8407 151.792 31.2153V27.1812C151.792 26.589 151.761 26.2404 151.7 26.1353C151.639 26.0246 151.545 25.9277 151.418 25.8447C151.291 25.7562 151.031 25.7119 150.638 25.7119V25.3965H154.315V25.7119C153.944 25.7119 153.695 25.7507 153.568 25.8281C153.441 25.9001 153.341 25.9914 153.269 26.1021C153.197 26.2127 153.161 26.5724 153.161 27.1812V30.6592ZM171.763 33H169.522C168.825 31.9873 168.194 30.9497 167.629 29.8872C167.497 29.6437 167.375 29.4639 167.264 29.3477C167.159 29.2259 167.012 29.165 166.824 29.165C166.758 29.165 166.653 29.1706 166.509 29.1816V31.2153C166.509 31.7632 166.539 32.1146 166.6 32.2695C166.667 32.4189 166.783 32.5269 166.949 32.5933C167.115 32.6597 167.394 32.6929 167.787 32.6929V33H163.985V32.6929C164.478 32.6929 164.793 32.6043 164.932 32.4272C165.07 32.2446 165.139 31.8407 165.139 31.2153V27.1812C165.139 26.589 165.109 26.2404 165.048 26.1353C164.987 26.0246 164.893 25.9277 164.766 25.8447C164.638 25.7562 164.378 25.7119 163.985 25.7119V25.3965H167.787V25.7119C167.328 25.7119 167.043 25.7451 166.932 25.8115C166.827 25.8779 166.73 25.9609 166.642 26.0605C166.553 26.1546 166.509 26.5282 166.509 27.1812V28.6753C166.636 28.6864 166.722 28.6919 166.766 28.6919C167.104 28.6919 167.419 28.5978 167.712 28.4097C168.011 28.216 168.277 27.8092 168.509 27.1895C168.725 26.6029 168.902 26.2072 169.041 26.0024C169.184 25.7977 169.381 25.6317 169.63 25.5044C169.884 25.3716 170.15 25.3052 170.427 25.3052C170.726 25.3052 170.964 25.3771 171.141 25.521C171.318 25.6649 171.406 25.853 171.406 26.0854C171.406 26.2791 171.343 26.4451 171.215 26.5835C171.088 26.7163 170.911 26.7827 170.684 26.7827C170.562 26.7827 170.41 26.7495 170.228 26.6831C169.995 26.6001 169.818 26.5586 169.696 26.5586C169.442 26.5586 169.231 26.7772 169.065 27.2144C168.877 27.7179 168.739 28.0444 168.65 28.1938C168.562 28.3377 168.393 28.5314 168.144 28.7749C168.316 28.8247 168.501 28.952 168.7 29.1567C168.905 29.3615 169.281 29.9453 169.829 30.9082C170.266 31.6774 170.593 32.1644 170.809 32.3691C171.03 32.5739 171.348 32.6818 171.763 32.6929V33ZM171.971 25.3965H175.515V25.7036H175.341C175.092 25.7036 174.904 25.759 174.776 25.8696C174.655 25.9748 174.594 26.1076 174.594 26.2681C174.594 26.4839 174.685 26.7827 174.868 27.1646L176.719 30.9995L178.42 26.7993C178.514 26.5724 178.562 26.3483 178.562 26.127C178.562 26.0273 178.542 25.9526 178.503 25.9028C178.459 25.842 178.39 25.7949 178.296 25.7617C178.202 25.723 178.036 25.7036 177.798 25.7036V25.3965H180.271V25.7036C180.067 25.7257 179.909 25.77 179.798 25.8364C179.688 25.9028 179.566 26.0273 179.433 26.21C179.383 26.2874 179.289 26.5005 179.151 26.8491L176.055 34.436C175.756 35.172 175.363 35.7282 174.876 36.1045C174.395 36.4808 173.93 36.6689 173.481 36.6689C173.155 36.6689 172.887 36.5749 172.676 36.3867C172.466 36.1986 172.361 35.9827 172.361 35.7393C172.361 35.5068 172.436 35.3187 172.585 35.1748C172.74 35.0365 172.95 34.9673 173.216 34.9673C173.398 34.9673 173.647 35.0282 173.963 35.1499C174.184 35.2329 174.323 35.2744 174.378 35.2744C174.544 35.2744 174.724 35.1886 174.917 35.0171C175.117 34.8455 175.316 34.5135 175.515 34.021L176.055 32.7012L173.324 26.9653C173.241 26.7938 173.108 26.5807 172.925 26.3262C172.787 26.1325 172.674 26.0024 172.585 25.936C172.458 25.8475 172.253 25.77 171.971 25.7036V25.3965ZM181.683 25.3965H188.481V25.7119C188.105 25.7119 187.853 25.7507 187.726 25.8281C187.604 25.9001 187.507 25.9914 187.435 26.1021C187.363 26.2127 187.327 26.5724 187.327 27.1812V31.2153C187.327 31.8019 187.358 32.1533 187.418 32.2695C187.479 32.3802 187.573 32.4798 187.701 32.5684C187.833 32.6514 188.094 32.6929 188.481 32.6929V33H184.546V32.6929C184.972 32.6929 185.266 32.6707 185.426 32.6265C185.592 32.5822 185.722 32.4771 185.816 32.311C185.91 32.1395 185.958 31.7743 185.958 31.2153V25.936H183.426V29.1401C183.426 30.3521 183.37 31.2043 183.26 31.6968C183.155 32.1838 182.942 32.5462 182.621 32.7842C182.305 33.0166 181.943 33.1328 181.533 33.1328C180.825 33.1328 180.471 32.8395 180.471 32.2529C180.471 32.0537 180.526 31.8905 180.637 31.7632C180.753 31.6359 180.902 31.5723 181.085 31.5723C181.279 31.5723 181.458 31.6525 181.625 31.813C181.84 32.0233 182.004 32.1284 182.114 32.1284C182.363 32.1284 182.543 31.9209 182.654 31.5059C182.77 31.0853 182.828 30.3521 182.828 29.3062V27.6294C182.828 26.7661 182.764 26.2404 182.637 26.0522C182.515 25.8641 182.197 25.7507 181.683 25.7119V25.3965ZM191.76 28.7832L192.706 28.7666C194.964 28.7666 196.093 29.4639 196.093 30.8584C196.093 31.5059 195.816 32.026 195.263 32.4189C194.715 32.8063 193.924 33 192.889 33H189.236V32.6929C189.729 32.6929 190.044 32.6043 190.183 32.4272C190.321 32.2446 190.39 31.8407 190.39 31.2153V27.1812C190.39 26.589 190.36 26.2404 190.299 26.1353C190.238 26.0246 190.144 25.9277 190.017 25.8447C189.889 25.7562 189.629 25.7119 189.236 25.7119V25.3965H193.212V25.7119C192.665 25.7119 192.327 25.7451 192.2 25.8115C192.072 25.8724 191.967 25.9554 191.884 26.0605C191.801 26.1602 191.76 26.5337 191.76 27.1812V28.7832ZM191.76 32.3442C192.053 32.4217 192.346 32.4604 192.64 32.4604C193.193 32.4604 193.641 32.3138 193.984 32.0205C194.333 31.7272 194.507 31.3564 194.507 30.9082C194.507 29.8457 193.769 29.3145 192.291 29.3145C192.164 29.3145 191.987 29.3172 191.76 29.3228V32.3442ZM197.022 25.3965H203.597L203.929 27.4551H203.555C203.489 27.04 203.378 26.7191 203.223 26.4922C203.068 26.2653 202.891 26.1159 202.692 26.0439C202.493 25.972 202.152 25.936 201.671 25.936H201.007V31.2153C201.007 31.7798 201.04 32.1395 201.106 32.2944C201.178 32.4438 201.292 32.5435 201.447 32.5933C201.602 32.6431 201.956 32.6763 202.509 32.6929V33H198.375V32.6929C198.907 32.6818 199.247 32.596 199.396 32.4355C199.551 32.2751 199.629 31.8683 199.629 31.2153V25.936H198.948C198.472 25.936 198.149 25.9665 197.977 26.0273C197.806 26.0827 197.639 26.221 197.479 26.4424C197.324 26.6582 197.191 26.9958 197.081 27.4551H196.707L197.022 25.3965ZM204.145 25.3965H207.689V25.7036H207.515C207.266 25.7036 207.077 25.759 206.95 25.8696C206.828 25.9748 206.768 26.1076 206.768 26.2681C206.768 26.4839 206.859 26.7827 207.042 27.1646L208.893 30.9995L210.594 26.7993C210.688 26.5724 210.735 26.3483 210.735 26.127C210.735 26.0273 210.716 25.9526 210.677 25.9028C210.633 25.842 210.564 25.7949 210.47 25.7617C210.376 25.723 210.21 25.7036 209.972 25.7036V25.3965H212.445V25.7036C212.241 25.7257 212.083 25.77 211.972 25.8364C211.861 25.9028 211.74 26.0273 211.607 26.21C211.557 26.2874 211.463 26.5005 211.325 26.8491L208.229 34.436C207.93 35.172 207.537 35.7282 207.05 36.1045C206.568 36.4808 206.104 36.6689 205.655 36.6689C205.329 36.6689 205.06 36.5749 204.85 36.3867C204.64 36.1986 204.535 35.9827 204.535 35.7393C204.535 35.5068 204.609 35.3187 204.759 35.1748C204.914 35.0365 205.124 34.9673 205.39 34.9673C205.572 34.9673 205.821 35.0282 206.137 35.1499C206.358 35.2329 206.496 35.2744 206.552 35.2744C206.718 35.2744 206.898 35.1886 207.091 35.0171C207.291 34.8455 207.49 34.5135 207.689 34.021L208.229 32.7012L205.498 26.9653C205.415 26.7938 205.282 26.5807 205.099 26.3262C204.961 26.1325 204.847 26.0024 204.759 25.936C204.632 25.8475 204.427 25.77 204.145 25.7036V25.3965ZM212.528 26.1519L214.869 25.2056H215.185V26.9819C215.577 26.3123 215.97 25.8447 216.363 25.5791C216.762 25.3079 217.18 25.1724 217.617 25.1724C218.38 25.1724 219.017 25.4712 219.526 26.0688C220.151 26.7993 220.464 27.7511 220.464 28.9243C220.464 30.2358 220.088 31.3205 219.335 32.1782C218.715 32.881 217.935 33.2324 216.994 33.2324C216.585 33.2324 216.23 33.1743 215.932 33.0581C215.71 32.9751 215.461 32.8091 215.185 32.5601V34.876C215.185 35.3962 215.215 35.7254 215.276 35.8638C215.342 36.0076 215.453 36.1211 215.608 36.2041C215.768 36.2871 216.056 36.3286 216.471 36.3286V36.6357H212.487V36.3286H212.694C212.999 36.3341 213.259 36.276 213.475 36.1543C213.58 36.0934 213.66 35.9938 213.715 35.8555C213.776 35.7227 213.807 35.3796 213.807 34.8262V27.6377C213.807 27.1452 213.785 26.8325 213.74 26.6997C213.696 26.5669 213.624 26.4673 213.524 26.4009C213.43 26.3345 213.3 26.3013 213.134 26.3013C213.001 26.3013 212.833 26.34 212.628 26.4175L212.528 26.1519ZM215.185 27.4717V30.3105C215.185 30.9248 215.209 31.3288 215.259 31.5225C215.337 31.8434 215.525 32.1257 215.824 32.3691C216.128 32.6126 216.51 32.7344 216.969 32.7344C217.523 32.7344 217.971 32.5186 218.314 32.0869C218.762 31.5225 218.986 30.7284 218.986 29.7046C218.986 28.5425 218.732 27.6488 218.223 27.0234C217.868 26.5918 217.448 26.376 216.961 26.376C216.695 26.376 216.432 26.4424 216.172 26.5752C215.973 26.6748 215.644 26.9736 215.185 27.4717ZM228.258 25.7119V25.3965H232.085V25.7119C231.747 25.7119 231.501 25.7479 231.346 25.8198C231.191 25.8918 231.083 26.0024 231.022 26.1519C230.967 26.3013 230.939 26.6444 230.939 27.1812V31.2153C230.939 31.7355 230.964 32.0731 231.014 32.228C231.064 32.3774 231.169 32.4937 231.33 32.5767C231.496 32.6541 231.747 32.6929 232.085 32.6929V33H228.258V32.6929C228.69 32.6763 228.969 32.6486 229.097 32.6099C229.229 32.5656 229.34 32.4577 229.429 32.2861C229.517 32.1146 229.562 31.7576 229.562 31.2153V27.1812C229.562 26.6444 229.531 26.2985 229.47 26.1436C229.409 25.9886 229.301 25.8807 229.146 25.8198C228.997 25.7534 228.701 25.7174 228.258 25.7119ZM223.942 28.7832L224.888 28.7666C227.146 28.7666 228.275 29.4639 228.275 30.8584C228.275 31.5059 227.998 32.026 227.445 32.4189C226.897 32.8063 226.106 33 225.071 33H221.418V32.6929C221.911 32.6929 222.226 32.6043 222.365 32.4272C222.503 32.2446 222.572 31.8407 222.572 31.2153V27.1812C222.572 26.589 222.542 26.2404 222.481 26.1353C222.42 26.0246 222.326 25.9277 222.199 25.8447C222.071 25.7562 221.811 25.7119 221.418 25.7119V25.3965H225.395V25.7119C224.847 25.7119 224.509 25.7451 224.382 25.8115C224.255 25.8724 224.149 25.9554 224.066 26.0605C223.983 26.1602 223.942 26.5337 223.942 27.1812V28.7832ZM223.942 32.3442C224.235 32.4217 224.528 32.4604 224.822 32.4604C225.375 32.4604 225.823 32.3138 226.167 32.0205C226.515 31.7272 226.689 31.3564 226.689 30.9082C226.689 29.8457 225.951 29.3145 224.473 29.3145C224.346 29.3145 224.169 29.3172 223.942 29.3228V32.3442Z" fill="white"/>
</svg>
