<svg width="31" height="27" viewBox="0 0 31 27" fill="none" xmlns="http://www.w3.org/2000/svg">
<path d="M28.063 5.45422C29.5692 5.45422 30.7902 4.23325 30.7902 2.72711C30.7902 1.22097 29.5692 0 28.063 0C26.5569 0 25.3359 1.22097 25.3359 2.72711C25.3359 4.23325 26.5569 5.45422 28.063 5.45422Z" fill="white"/>
<path d="M19.9629 5.15234H0.796875V26.4586H6.13142V19.5269H16.3533L21.0171 26.4586H26.9905L21.8476 19.4949C23.4447 19.2394 24.5947 18.6325 25.2975 17.6742C26.0003 16.7159 26.3517 15.1825 26.3517 13.1382V11.541C26.3517 10.3272 26.2239 9.36886 26.0003 8.63414C25.7766 7.89951 25.3933 7.26056 24.8503 6.6856C24.2753 6.14259 23.6364 5.75926 22.8698 5.50373C22.1031 5.28007 21.1448 5.15234 19.9629 5.15234ZM19.1005 14.8312H6.13142V9.84805H19.1005C19.8351 9.84805 20.3463 9.97578 20.6018 10.1994C20.8573 10.423 21.0171 10.8383 21.0171 11.4452V13.234C21.0171 13.8729 20.8573 14.2881 20.6018 14.5117C20.3463 14.7354 19.8351 14.8312 19.1005 14.8312Z" fill="white"/>
</svg>
