<svg width="38" height="22" viewBox="0 0 38 22" fill="none" xmlns="http://www.w3.org/2000/svg">
<path d="M37.456 19.6475C37.3548 19.4781 36.7289 18.118 33.7169 15.3225C30.5637 12.3952 30.9873 12.8705 34.7852 7.809C37.0983 4.72643 38.0231 2.84394 37.7336 2.03918C37.4583 1.27207 35.757 1.47443 35.757 1.47443L30.1001 1.50738C30.1001 1.50738 29.6813 1.4509 29.3683 1.6368C29.0648 1.82034 28.8695 2.2439 28.8695 2.2439C28.8695 2.2439 27.9729 4.62995 26.7776 6.65833C24.2574 10.9386 23.2479 11.1645 22.8361 10.8986C21.8784 10.2798 22.1184 8.40905 22.1184 7.08189C22.1184 2.93336 22.7467 1.20383 20.8924 0.756735C20.2759 0.608489 19.8241 0.509659 18.2499 0.493187C16.2309 0.472009 14.5202 0.500246 13.5531 0.973221C12.9083 1.28854 12.4118 1.99212 12.7154 2.03212C13.0895 2.08154 13.9366 2.26037 14.3861 2.87218C14.9673 3.66047 14.9461 5.43472 14.9461 5.43472C14.9461 5.43472 15.2803 10.3174 14.1672 10.9245C13.4025 11.341 12.3553 10.4915 10.1081 6.60656C8.95745 4.61819 8.0868 2.41803 8.0868 2.41803C8.0868 2.41803 7.91973 2.00859 7.62089 1.78975C7.25851 1.52385 6.75024 1.43914 6.75024 1.43914L1.37103 1.47208C1.37103 1.47208 0.56391 1.49561 0.267418 1.84623C0.00387 2.15919 0.24624 2.80394 0.24624 2.80394C0.24624 2.80394 4.45831 12.6564 9.22571 17.6238C13.6001 22.1771 18.5652 21.8782 18.5652 21.8782H20.8148C20.8148 21.8782 21.4948 21.8029 21.8407 21.4288C22.1608 21.0852 22.149 20.4405 22.149 20.4405C22.149 20.4405 22.1043 17.4215 23.5067 16.9767C24.888 16.539 26.6623 19.8946 28.5424 21.1864C29.9637 22.163 31.0437 21.9488 31.0437 21.9488L36.0723 21.8782C36.0723 21.8782 38.7031 21.7159 37.456 19.6475Z" fill="white"/>
</svg>
