<svg width="34" height="24" viewBox="0 0 34 24" fill="none" xmlns="http://www.w3.org/2000/svg">
<path d="M32.3912 3.06939C31.496 1.4769 30.5244 1.18398 28.5462 1.07259C26.57 0.938508 21.6007 0.882812 17.2956 0.882812C12.9823 0.882812 8.01094 0.938508 6.03684 1.07053C4.06273 1.18398 3.08909 1.47484 2.18558 3.06939C1.26351 4.65981 0.789062 7.39921 0.789062 12.2221C0.789062 12.2262 0.789062 12.2282 0.789062 12.2282C0.789062 12.2324 0.789062 12.2344 0.789062 12.2344V12.2386C0.789062 17.0408 1.26351 19.8008 2.18558 21.3747C3.08909 22.9672 4.06067 23.256 6.03478 23.3901C8.01094 23.5056 12.9823 23.5737 17.2956 23.5737C21.6007 23.5737 26.57 23.5056 28.5482 23.3921C30.5265 23.2581 31.498 22.9693 32.3933 21.3768C33.3236 19.8029 33.7939 17.0428 33.7939 12.2406C33.7939 12.2406 33.7939 12.2344 33.7939 12.2303C33.7939 12.2303 33.7939 12.2262 33.7939 12.2241C33.7939 7.39921 33.3236 4.65981 32.3912 3.06939ZM13.1659 18.4167V6.03982L23.4799 12.2282L13.1659 18.4167Z" fill="white"/>
</svg>
